<?xml version="1.0" encoding="UTF-8" standalone="no"?>
<svg
   viewBox="0 0 744.094 720.00001"
   version="1.1"
   id="svg26"
   sodipodi:docname="optical_icon.svg"
   width="744.09399"
   height="720"
   inkscape:version="1.2.2 (732a01da63, 2022-12-09)"
   xmlns:inkscape="http://www.inkscape.org/namespaces/inkscape"
   xmlns:sodipodi="http://sodipodi.sourceforge.net/DTD/sodipodi-0.dtd"
   xmlns="http://www.w3.org/2000/svg"
   xmlns:svg="http://www.w3.org/2000/svg">
  <sodipodi:namedview
     id="namedview28"
     pagecolor="#ffffff"
     bordercolor="#000000"
     borderopacity="0.25"
     inkscape:showpageshadow="2"
     inkscape:pageopacity="0.0"
     inkscape:pagecheckerboard="0"
     inkscape:deskcolor="#d1d1d1"
     showgrid="false"
     inkscape:zoom="0.63429569"
     inkscape:cx="835.57244"
     inkscape:cy="422.51587"
     inkscape:window-width="1920"
     inkscape:window-height="1137"
     inkscape:window-x="1912"
     inkscape:window-y="208"
     inkscape:window-maximized="1"
     inkscape:current-layer="svg26" />
  <defs
     id="defs12">
    <radialGradient
       id="a"
       cx="674.89001"
       cy="443.62"
       r="96.046997"
       gradientTransform="matrix(-2.4465352,2.3541577,-2.0029707,-2.2759862,2901.3123,-281.41726)"
       gradientUnits="userSpaceOnUse">
      <stop
         stop-color="#f00"
         offset="0"
         id="stop2" />
      <stop
         stop-color="#f00"
         stop-opacity="0"
         offset="1"
         id="stop4" />
    </radialGradient>
    <radialGradient
       id="b"
       cx="337.20999"
       cy="478.14999"
       r="91.143997"
       gradientTransform="matrix(0.07565,2.1648,-3.8668,0.13513,2206.9,-689.29)"
       gradientUnits="userSpaceOnUse">
      <stop
         stop-color="#fff"
         offset="0"
         id="stop7" />
      <stop
         stop-color="#fff"
         stop-opacity="0"
         offset="1"
         id="stop9" />
    </radialGradient>
  </defs>
  <path
     d="m 363.5,575.69 16.684,-39.095 -0.15435,-56.426 29.374,-11.249 -86.342,-58.378 -1.4657,-50.448 -32.729,-2.0192 2.0692,71.221 34.989,28.684 -5.2022,25.397 -40.727,29.399 -9.05,46.299 52.406,14.813 3.1184,5.107 6.2063,111.39 28.595,-1.0788 z"
     fill="#4d4d4d"
     fill-rule="evenodd"
     stroke="#000000"
     stroke-width="1.8332"
     id="path14" />
  <path
     d="m 472.2,687.81 -9.7127,-129.85 -2.0442,-19.246 -26.751,-0.70782 -4.1134,-90.467 -85.955,-45.024 -2.5615,-37.051 172.03,-7.9682 -2.2097,77.286 -20.04,25.828 51.12,72.766 0.73285,25.224 -38.406,7.0559 -0.97547,119.77 z"
     fill="#4d4d4d"
     fill-rule="evenodd"
     stroke="#000000"
     stroke-width="1.8332"
     id="path16" />
  <path
     d="m 565.93,589.49 c 0,0 -92.419,42.781 -336.88,11.272 -3.3986,-14.752 -1.9696,-65.389 -1.9696,-65.389 l 22.048,-7.8208 c 0,0 -2.7035,-304.16 1.2978,-329.82 -3.6331,-32.86 60.622,-110.9 131.88,-112.24 94.964,-1.7801 142.46,87.382 140.79,92.436 10.892,28.449 22.239,344.67 22.239,344.67 l 19.042,5.2119 1.5517,61.671 z"
     fill="#ff0000"
     opacity="0.78968"
     stroke="#ffffff"
     stroke-width="1.8332"
     id="path18" />
  <path
     d="m 563.82,588.32 c 0,0 -90.694,42.413 -330.64,11.079 -3.3402,-14.636 -1.9533,-64.871 -1.9533,-64.871 l 21.637,-7.752 c 0,0 -2.7471,-301.75 1.1722,-327.2 -3.576,-32.601 59.466,-110.01 129.4,-111.31 93.205,-1.7367 139.85,86.734 138.21,91.747 10.7,28.227 21.934,341.95 21.934,341.95 l 18.691,5.1765 1.542,61.183 z"
     fill="url(#b)"
     id="path20"
     style="fill:url(#b)" />
  <path
     d="m 247.17,532.77 c 0,-2e-5 -6.0737,0.8363 -8.8474,1.8138 l -8.8337,3.113 c -4e-5,2e-5 165.44,24.328 335.29,-7.3371 l -2.6695,-0.90037 c -3.0575,-1.0312 -9.971,-2.7214 -12.096,-3.4482 l -302.85,6.759 z"
     fill="#cccccc"
     fill-opacity="0.62241"
     fill-rule="evenodd"
     opacity="0.59524"
     stroke="#cccccc"
     stroke-linecap="round"
     stroke-linejoin="round"
     stroke-width="1.8332"
     id="path22" />
  <path
     d="M 708.17315,297.94464 A 294.71508,342.37464 88.336141 1 1 23.726991,317.82946 294.71508,342.37464 88.336141 1 1 708.17315,297.94464 Z"
     fill="url(#a)"
     opacity="0.59524"
     id="path24"
     style="fill:url(#a);stroke-width:3.79769" />
</svg>
